# xmcd CD database file
#
# Track frame offsets:
#	150
#	20340
#	37257
#	52074
#	70724
#	90776
#	114346
#	138100
#	156889
#	175043
#	196176
#	218170
#	242610
#	261243
#	279761
#	295602
#	315988
#	332121
#
# Disc length: 4762 seconds
#
# Revision: 2
# Processed by: cddbd v1.4b41PL1 Copyright (c) Steve Scherf et al.
# Submitted via: Feurio! 1.50.2ß - http://www.feurio.com
#
DISCID=ef129812
DTITLE=REM - 7"
DYEAR=1900
DGENRE=
TTITLE0=R.E.M. - Losing My Religion
TTITLE1=R.E.M. - Shiny Happy People
TTITLE2=R.E.M. - Near Wild Heaven
TTITLE3=R.E.M. - Radio Song
TTITLE4=R.E.M. - Drive
TTITLE5=R.E.M. - Man On The Moon
TTITLE6=R.E.M. - Everybody Hurts
TTITLE7=R.E.M. - Nightswimming
TTITLE8=R.E.M. - What The Frequency, Kenneth?
TTITLE9=R.E.M. - Crush With Eyeliner
TTITLE10=R.E.M. - Bang And Blame
TTITLE11=R.E.M. - E-Bow The Letter
TTITLE12=R.E.M. - Bittersweet Me
TTITLE13=R.E.M. - Electrolite
TTITLE14=R.E.M. - Daysleeper
TTITLE15=R.E.M. - Lotus
TTITLE16=R.E.M. - At My Most Beautiful
TTITLE17=R.E.M. - Suspicion
EXTD=
EXTT0=
EXTT1=
EXTT2=
EXTT3=
EXTT4=
EXTT5=
EXTT6=
EXTT7=
EXTT8=
EXTT9=
EXTT10=
EXTT11=
EXTT12=
EXTT13=
EXTT14=
EXTT15=
EXTT16=
EXTT17=
PLAYORDER=
